<svg xmlns="http://www.w3.org/2000/svg" version="1.1" xmlns:xlink="http://www.w3.org/1999/xlink" viewBox="0 0 200 200" width="200" height="200"><metadata><rdf:RDF xmlns:rdf="http://www.w3.org/1999/02/22-rdf-syntax-ns#" xmlns:dc="http://purl.org/dc/elements/1.1/"><rdf:Description><dc:creator>RealFaviconGenerator</dc:creator><dc:source>https://realfavicongenerator.net</dc:source></rdf:Description></rdf:RDF></metadata><rect width="200" height="200" fill="url('#gradient')"></rect><defs><linearGradient id="gradient" gradientTransform="rotate(346 0.5 0.5)"><stop offset="0%" stop-color="#f1eee5"></stop><stop offset="100%" stop-color="#d5c3a1"></stop></linearGradient></defs><g><g fill="#000000" transform="matrix(5.687309080810886,0,0,5.687309080810886,-2.8842411820539553,142.08842915993404)" stroke="#000000" stroke-width="0"><path d="M0.51-5.36L0.51-5.36Q0.51-7.87 1.59-9.32Q2.68-10.76 4.62-10.76L4.62-10.76Q6.04-10.76 7.00-9.65L7.00-9.65L7.00-15L10.30-15L10.30 0L7.34 0L7.18-1.13Q6.16 0.20 4.60 0.20L4.60 0.20Q2.71 0.20 1.61-1.25Q0.51-2.70 0.51-5.36ZM3.81-5.76L3.80-5.16Q3.80-2.34 5.44-2.34L5.44-2.34Q6.53-2.34 7.00-3.26L7.00-3.26L7.00-7.29Q6.55-8.22 5.46-8.22L5.46-8.22Q3.94-8.22 3.81-5.76L3.81-5.76ZM24.20-14.22L24.20 0L20.79 0L15.75-8.85L15.75 0L12.32 0L12.32-14.22L15.75-14.22L20.78-5.37L20.78-14.22L24.20-14.22ZM29.43-15L29.43-9.43Q30.49-10.76 32.13-10.76L32.13-10.76Q33.88-10.76 34.77-9.73Q35.65-8.69 35.67-6.67L35.67-6.67L35.67 0L32.37 0L32.37-6.59Q32.37-7.43 32.03-7.83Q31.69-8.22 30.87-8.22L30.87-8.22Q29.85-8.22 29.43-7.58L29.43-7.58L29.43 0L26.14 0L26.14-15L29.43-15Z"></path></g></g></svg>